STARTFONT 2.1
FONT -FontForge-Roboto Bk-Book-R-Normal--26-250-75-75-P-135-ISO10646-1
SIZE 25 75 75
FONTBOUNDINGBOX 24 27 -1 -5
COMMENT "Generated by fontforge, http://fontforge.sourceforge.net"
COMMENT "Font data copyright Google 2011"
STARTPROPERTIES 39
FOUNDRY "FontForge"
FAMILY_NAME "Roboto Bk"
WEIGHT_NAME "Book"
SLANT "R"
SETWIDTH_NAME "Normal"
ADD_STYLE_NAME ""
PIXEL_SIZE 26
POINT_SIZE 250
RESOLUTION_X 75
RESOLUTION_Y 75
SPACING "P"
AVERAGE_WIDTH 135
CHARSET_REGISTRY "ISO10646"
CHARSET_ENCODING "1"
FONTNAME_REGISTRY ""
CHARSET_COLLECTIONS "ISO8859-2 ISO8859-5 ISO8859-7 ISO8859-9 ISO8859-4 ISO10646-1"
FONT_NAME "Roboto-Black"
FACE_NAME "Roboto Black"
COPYRIGHT "Font data copyright Google 2011"
FONT_VERSION "1.00000; 2011"
FONT_ASCENT 20
FONT_DESCENT 6
UNDERLINE_POSITION -3
UNDERLINE_THICKNESS 2
X_HEIGHT 13
CAP_HEIGHT 18
RAW_ASCENT 750
RAW_DESCENT 250
NORM_SPACE 6
RELATIVE_WEIGHT 40
RELATIVE_SETWIDTH 50
SUPERSCRIPT_X 0
SUPERSCRIPT_Y 12
SUPERSCRIPT_SIZE 16
SUBSCRIPT_X 0
SUBSCRIPT_Y 3
SUBSCRIPT_SIZE 16
AVG_LOWERCASE_WIDTH 132
AVG_UPPERCASE_WIDTH 167
ENDPROPERTIES
CHARS 96
STARTCHAR space
ENCODING 32
SWIDTH 249 0
DWIDTH 6 0
BBX 1 1 0 0
BITMAP
00
ENDCHAR
STARTCHAR exclam
ENCODING 33
SWIDTH 275 0
DWIDTH 7 0
BBX 5 19 1 0
BITMAP
F8
F8
F8
F8
F8
F8
F8
F8
F8
F8
F8
F8
00
00
00
00
F8
F8
F8
ENDCHAR
STARTCHAR quotedbl
ENCODING 34
SWIDTH 430 0
DWIDTH 11 0
BBX 8 7 2 12
BITMAP
EF
EF
EF
EF
EE
CE
CC
ENDCHAR
STARTCHAR numbersign
ENCODING 35
SWIDTH 581 0
DWIDTH 15 0
BBX 15 19 0 0
BITMAP
0738
0730
0730
0670
0670
7FFE
7FFE
0E60
0E60
0CE0
0FE0
FFFC
FFFC
1FC0
1CC0
1CC0
19C0
19C0
39C0
ENDCHAR
STARTCHAR dollar
ENCODING 36
SWIDTH 599 0
DWIDTH 16 0
BBX 13 24 1 -3
BITMAP
0300
0300
0780
1FE0
3FF0
7FF8
7878
7878
7C00
7E00
3F80
1FE0
0FF0
01F8
0078
F078
F878
F878
7FF8
3FF0
1FE0
0300
0300
0300
ENDCHAR
STARTCHAR percent
ENCODING 37
SWIDTH 742 0
DWIDTH 19 0
BBX 17 19 1 0
BITMAP
3E0000
7F0000
E70800
E31C00
E33800
E73000
7F7000
7E6000
08E000
01C000
018C00
03BF00
077F80
067380
0E7380
0C7380
1C7380
083F00
001E00
ENDCHAR
STARTCHAR ampersand
ENCODING 38
SWIDTH 673 0
DWIDTH 18 0
BBX 16 19 1 0
BITMAP
0F80
1FC0
3FE0
3DE0
78E0
78E0
39E0
3FE0
3FC0
1F80
3F8E
7FCE
F3DE
F1FE
F0FC
F8FC
FFFC
7FFE
1F9F
ENDCHAR
STARTCHAR quotesingle
ENCODING 39
SWIDTH 214 0
DWIDTH 6 0
BBX 4 7 1 12
BITMAP
F0
F0
F0
F0
E0
E0
E0
ENDCHAR
STARTCHAR parenleft
ENCODING 40
SWIDTH 354 0
DWIDTH 9 0
BBX 7 25 2 -5
BITMAP
04
1C
1E
38
78
70
F0
E0
E0
E0
E0
E0
E0
E0
E0
E0
E0
E0
F0
70
78
38
1C
1E
04
ENDCHAR
STARTCHAR parenright
ENCODING 41
SWIDTH 354 0
DWIDTH 9 0
BBX 7 25 1 -5
BITMAP
80
E0
F0
70
38
3C
3C
1C
1E
1E
1E
1E
1E
1E
1E
1E
1E
1C
1C
3C
38
78
F0
E0
C0
ENDCHAR
STARTCHAR asterisk
ENCODING 42
SWIDTH 411 0
DWIDTH 11 0
BBX 9 10 1 4
BITMAP
1C00
1C00
9C80
FF80
FF80
3E00
3E00
7700
E700
4400
ENDCHAR
STARTCHAR plus
ENCODING 43
SWIDTH 534 0
DWIDTH 14 0
BBX 12 13 1 2
BITMAP
0F00
0F00
0F00
0F00
0F00
FFF0
FFF0
FFF0
0F00
0F00
0F00
0F00
0F00
ENDCHAR
STARTCHAR comma
ENCODING 44
SWIDTH 288 0
DWIDTH 7 0
BBX 5 8 1 -4
BITMAP
78
78
78
78
78
F0
F0
E0
ENDCHAR
STARTCHAR hyphen
ENCODING 45
SWIDTH 427 0
DWIDTH 11 0
BBX 7 3 2 6
BITMAP
FE
FE
FE
ENDCHAR
STARTCHAR period
ENCODING 46
SWIDTH 302 0
DWIDTH 8 0
BBX 4 3 2 0
BITMAP
F0
F0
F0
ENDCHAR
STARTCHAR slash
ENCODING 47
SWIDTH 395 0
DWIDTH 10 0
BBX 10 20 0 -1
BITMAP
03C0
07C0
0780
0780
0780
0F80
0F00
0F00
1F00
1E00
1E00
3E00
3C00
3C00
7C00
7800
7800
F800
F000
F000
ENDCHAR
STARTCHAR zero
ENCODING 48
SWIDTH 579 0
DWIDTH 15 0
BBX 13 19 1 0
BITMAP
0F80
3FE0
7FF0
7DF0
F8F8
F078
F078
F078
F078
F078
F078
F078
F078
F078
F8F8
7DF0
7FF0
3FE0
0F80
ENDCHAR
STARTCHAR one
ENCODING 49
SWIDTH 579 0
DWIDTH 15 0
BBX 8 19 3 0
BITMAP
3F
FF
FF
FF
1F
1F
1F
1F
1F
1F
1F
1F
1F
1F
1F
1F
1F
1F
1F
ENDCHAR
STARTCHAR two
ENCODING 50
SWIDTH 579 0
DWIDTH 15 0
BBX 13 19 1 0
BITMAP
1F80
3FE0
7FF0
F9F0
F0F0
F0F0
00F0
00F0
01F0
03E0
07C0
0F80
0F80
1F00
3E00
7C00
FFF8
FFF8
FFF8
ENDCHAR
STARTCHAR three
ENCODING 51
SWIDTH 579 0
DWIDTH 15 0
BBX 13 19 1 0
BITMAP
0FC0
3FE0
7FF0
FDF8
F878
0078
00F8
01F0
0FE0
0FE0
0FF0
00F8
0078
0078
F078
F8F8
7FF0
3FE0
1F80
ENDCHAR
STARTCHAR four
ENCODING 52
SWIDTH 579 0
DWIDTH 15 0
BBX 13 19 1 0
BITMAP
01F0
03F0
03F0
07F0
0FF0
0FF0
1FF0
1DF0
3DF0
79F0
71F0
F1F0
FFF8
FFF8
FFF8
01F0
01F0
01F0
01F0
ENDCHAR
STARTCHAR five
ENCODING 53
SWIDTH 579 0
DWIDTH 15 0
BBX 13 19 1 0
BITMAP
3FF0
7FF0
7FF0
7800
7800
7800
7B80
7FE0
7FF0
7DF8
78F8
0078
0078
0078
F878
FCF8
7FF0
3FE0
0FC0
ENDCHAR
STARTCHAR six
ENCODING 54
SWIDTH 579 0
DWIDTH 15 0
BBX 13 19 1 0
BITMAP
07E0
1FE0
3FE0
7E60
F800
F800
F100
F7E0
FFF0
FFF8
F0F8
F078
F078
F078
F8F8
7CF8
7FF0
3FE0
0F80
ENDCHAR
STARTCHAR seven
ENCODING 55
SWIDTH 579 0
DWIDTH 15 0
BBX 13 19 1 0
BITMAP
FFF8
FFF8
FFF8
0078
00F0
01E0
01E0
03C0
07C0
0780
0780
0F80
0F00
0F00
0F00
0F00
0F00
0F00
0F00
ENDCHAR
STARTCHAR eight
ENCODING 56
SWIDTH 579 0
DWIDTH 15 0
BBX 13 19 1 0
BITMAP
0FC0
3FE0
7FF0
7CF0
78F8
78F8
78F8
7FF0
3FE0
3FE0
7FF0
F8F8
F078
F078
F878
FCF8
7FF8
3FF0
0FC0
ENDCHAR
STARTCHAR nine
ENCODING 57
SWIDTH 579 0
DWIDTH 15 0
BBX 13 19 1 0
BITMAP
0F80
3FE0
7FF0
7DF0
F8F8
F078
F078
F078
F878
7DF8
7FF8
3F78
0C78
00F8
00F8
11F0
3FE0
3FC0
1F80
ENDCHAR
STARTCHAR colon
ENCODING 58
SWIDTH 299 0
DWIDTH 8 0
BBX 4 14 2 0
BITMAP
F0
F0
F0
00
00
00
00
00
00
00
00
F0
F0
F0
ENDCHAR
STARTCHAR semicolon
ENCODING 59
SWIDTH 282 0
DWIDTH 7 0
BBX 5 18 2 -4
BITMAP
F0
F0
F0
00
00
00
00
00
00
00
F8
F8
F8
F8
F0
F0
E0
E0
ENDCHAR
STARTCHAR less
ENCODING 60
SWIDTH 509 0
DWIDTH 13 0
BBX 11 12 1 1
BITMAP
0060
01E0
0FE0
3FE0
FF80
FC00
F800
FF00
7FE0
0FE0
03E0
0060
ENDCHAR
STARTCHAR equal
ENCODING 61
SWIDTH 583 0
DWIDTH 15 0
BBX 11 9 2 4
BITMAP
FFE0
FFE0
FFE0
FFE0
0000
0000
FFE0
FFE0
FFE0
ENDCHAR
STARTCHAR greater
ENCODING 62
SWIDTH 512 0
DWIDTH 13 0
BBX 12 12 1 1
BITMAP
C000
F000
FE00
FF80
1FF0
03F0
03F0
1FF0
FFC0
FE00
F800
E000
ENDCHAR
STARTCHAR question
ENCODING 63
SWIDTH 509 0
DWIDTH 13 0
BBX 13 19 0 0
BITMAP
1F80
3FE0
7FF0
FDF8
F8F8
0078
0078
00F8
01F0
03E0
07C0
0F80
0F00
0F00
0000
0000
0F00
0F00
0F00
ENDCHAR
STARTCHAR at
ENCODING 64
SWIDTH 883 0
DWIDTH 23 0
BBX 21 24 1 -5
BITMAP
01FC00
07FF80
0F07C0
1C01E0
380060
700070
702030
E0FE38
E1FE38
E3CE38
C38E38
C78E38
C70E38
C70E38
C70E30
E71C70
E79E70
E3EFE0
71C780
700000
380000
1F0400
0FFE00
03F800
ENDCHAR
STARTCHAR A
ENCODING 65
SWIDTH 638 0
DWIDTH 17 0
BBX 17 19 0 0
BITMAP
03E000
03E000
07F000
07F000
07F000
0FF000
0FF800
0F7800
1F7800
1E7C00
1E3C00
3E3C00
3FFE00
3FFE00
7FFE00
7C1F00
781F00
780F00
F80F80
ENDCHAR
STARTCHAR B
ENCODING 66
SWIDTH 637 0
DWIDTH 17 0
BBX 15 19 1 0
BITMAP
FFC0
FFF0
FFF8
F8FC
F87C
F83C
F87C
F8F8
FFF0
FFF0
FFFC
F87C
F83C
F83E
F83C
F87C
FFFC
FFF8
FFE0
ENDCHAR
STARTCHAR C
ENCODING 67
SWIDTH 638 0
DWIDTH 17 0
BBX 15 19 1 0
BITMAP
07E0
1FF8
3FFC
7E7C
783E
F83E
F000
F000
F000
F000
F000
F000
F03E
F83E
783E
7E7C
3FFC
1FF8
07E0
ENDCHAR
STARTCHAR D
ENCODING 68
SWIDTH 653 0
DWIDTH 17 0
BBX 15 19 1 0
BITMAP
FFC0
FFF0
FFF8
F8FC
F83C
F83E
F83E
F81E
F81E
F81E
F81E
F81E
F83E
F83E
F83C
F8FC
FFF8
FFF0
FFC0
ENDCHAR
STARTCHAR E
ENCODING 69
SWIDTH 558 0
DWIDTH 15 0
BBX 13 19 1 0
BITMAP
FFF8
FFF8
FFF8
F800
F800
F800
F800
FFE0
FFE0
FFE0
FFE0
F800
F800
F800
F800
F800
FFF8
FFF8
FFF8
ENDCHAR
STARTCHAR F
ENCODING 70
SWIDTH 558 0
DWIDTH 15 0
BBX 13 19 1 0
BITMAP
FFF8
FFF8
FFF8
F800
F800
F800
F800
F800
FFF0
FFF0
FFF0
F800
F800
F800
F800
F800
F800
F800
F800
ENDCHAR
STARTCHAR G
ENCODING 71
SWIDTH 660 0
DWIDTH 17 0
BBX 15 19 1 0
BITMAP
07E0
1FF8
3FFC
7E7C
783E
F81E
F000
F000
F000
F1FE
F1FE
F1FE
F01E
F81E
781E
7E3E
3FFE
1FFC
07E0
ENDCHAR
STARTCHAR H
ENCODING 72
SWIDTH 706 0
DWIDTH 18 0
BBX 16 19 1 0
BITMAP
F80F
F80F
F80F
F80F
F80F
F80F
F80F
F80F
FFFF
FFFF
FFFF
FFFF
F80F
F80F
F80F
F80F
F80F
F80F
F80F
ENDCHAR
STARTCHAR I
ENCODING 73
SWIDTH 298 0
DWIDTH 8 0
BBX 4 19 2 0
BITMAP
F0
F0
F0
F0
F0
F0
F0
F0
F0
F0
F0
F0
F0
F0
F0
F0
F0
F0
F0
ENDCHAR
STARTCHAR J
ENCODING 74
SWIDTH 558 0
DWIDTH 15 0
BBX 13 19 0 0
BITMAP
0078
0078
0078
0078
0078
0078
0078
0078
0078
0078
0078
0078
0078
F078
F8F8
7CF8
7FF0
3FE0
0F80
ENDCHAR
STARTCHAR K
ENCODING 75
SWIDTH 637 0
DWIDTH 17 0
BBX 16 19 1 0
BITMAP
F83E
F87C
F8FC
F8F8
F9F0
F9F0
FBE0
FFC0
FFC0
FFC0
FFE0
FFE0
FBF0
F9F0
F8F8
F8FC
F87C
F87E
F83F
ENDCHAR
STARTCHAR L
ENCODING 76
SWIDTH 558 0
DWIDTH 15 0
BBX 13 19 1 0
BITMAP
F800
F800
F800
F800
F800
F800
F800
F800
F800
F800
F800
F800
F800
F800
F800
F800
FFF8
FFF8
FFF8
ENDCHAR
STARTCHAR M
ENCODING 77
SWIDTH 870 0
DWIDTH 23 0
BBX 20 19 1 0
BITMAP
FC03F0
FE03F0
FE03F0
FE07F0
FE07F0
FF07F0
FF0FF0
FF0FF0
FF8EF0
FB9EF0
FB9EF0
FBDCF0
F9DCF0
F9FCF0
F9F8F0
F8F8F0
F8F8F0
F8F0F0
F870F0
ENDCHAR
STARTCHAR N
ENCODING 78
SWIDTH 706 0
DWIDTH 18 0
BBX 16 19 1 0
BITMAP
F80F
FC0F
FC0F
FE0F
FE0F
FF0F
FF0F
FF8F
FBCF
FBCF
F9EF
F9EF
F8FF
F8FF
F87F
F83F
F83F
F81F
F81F
ENDCHAR
STARTCHAR O
ENCODING 79
SWIDTH 691 0
DWIDTH 18 0
BBX 16 19 1 0
BITMAP
07E0
1FF8
3FFC
7E7E
781E
F81F
F81F
F00F
F00F
F00F
F00F
F00F
F81F
F81F
781E
7E7E
3FFC
1FF8
07E0
ENDCHAR
STARTCHAR P
ENCODING 80
SWIDTH 637 0
DWIDTH 17 0
BBX 15 19 1 0
BITMAP
FFE0
FFF0
FFF8
F87C
F83C
F83E
F83E
F83E
F87C
FFFC
FFF8
FFF0
F800
F800
F800
F800
F800
F800
F800
ENDCHAR
STARTCHAR Q
ENCODING 81
SWIDTH 706 0
DWIDTH 18 0
BBX 17 21 1 -2
BITMAP
07E000
1FF800
3FFC00
7E7E00
781E00
F81F00
F81F00
F00F00
F00F00
F00F00
F00F00
F00F00
F81F00
F81F00
781E00
7E7E00
3FFE00
1FFF00
07EF80
000700
000200
ENDCHAR
STARTCHAR R
ENCODING 82
SWIDTH 637 0
DWIDTH 17 0
BBX 15 19 1 0
BITMAP
FFC0
FFF0
FFF8
F8F8
F87C
F83C
F87C
F87C
FFF8
FFF0
FFF0
FFF8
F87C
F83C
F83C
F83C
F83C
F83C
F83E
ENDCHAR
STARTCHAR S
ENCODING 83
SWIDTH 621 0
DWIDTH 16 0
BBX 14 19 1 0
BITMAP
0FC0
3FF0
7FF8
7CFC
F83C
F83C
F800
7E00
3FC0
1FF0
07F8
00FC
003C
F03C
F03C
FC7C
7FFC
3FF8
0FE0
ENDCHAR
STARTCHAR T
ENCODING 84
SWIDTH 561 0
DWIDTH 15 0
BBX 14 19 0 0
BITMAP
FFFC
FFFC
FFFC
0780
0780
0780
0780
0780
0780
0780
0780
0780
0780
0780
0780
0780
0780
0780
0780
ENDCHAR
STARTCHAR U
ENCODING 85
SWIDTH 691 0
DWIDTH 18 0
BBX 16 19 1 0
BITMAP
F81F
F81F
F81F
F81F
F81F
F81F
F81F
F81F
F81F
F81F
F81F
F81F
F81F
F81F
781E
7E7E
3FFC
1FF8
07E0
ENDCHAR
STARTCHAR V
ENCODING 86
SWIDTH 638 0
DWIDTH 17 0
BBX 17 19 0 0
BITMAP
F80F80
F80F00
781F00
781F00
7C1E00
3C1E00
3C3E00
3C3C00
1E3C00
1E3C00
1E7800
0E7800
0F7800
0F7000
07F000
07F000
07E000
07E000
03E000
ENDCHAR
STARTCHAR W
ENCODING 87
SWIDTH 891 0
DWIDTH 23 0
BBX 23 19 0 0
BITMAP
F8381E
F83C3E
787C3C
787C3C
787C3C
7C7E3C
3CFE7C
3CEE78
3CEE78
3DEF78
1DEF78
1FC770
1FC7F0
1FC7F0
1FC3F0
0F83F0
0F83E0
0F83E0
0F81E0
ENDCHAR
STARTCHAR X
ENCODING 88
SWIDTH 638 0
DWIDTH 17 0
BBX 17 19 0 0
BITMAP
F81F00
7C1E00
3C3E00
3E3C00
1E7C00
1F7800
0FF800
0FF000
07F000
03E000
07F000
0FF000
0FF800
1F7800
1E7C00
3E3E00
3C3E00
7C1F00
F81F80
ENDCHAR
STARTCHAR Y
ENCODING 89
SWIDTH 638 0
DWIDTH 17 0
BBX 17 19 0 0
BITMAP
F80F80
781F00
7C1E00
3C3E00
3E3C00
1E3C00
1E7800
0F7800
0FF000
07F000
07E000
03E000
03C000
03C000
03C000
03C000
03C000
03C000
03C000
ENDCHAR
STARTCHAR Z
ENCODING 90
SWIDTH 552 0
DWIDTH 14 0
BBX 13 19 1 0
BITMAP
FFF0
FFF0
FFF0
01F0
01E0
03C0
03C0
0780
0F80
0F00
1F00
1E00
3E00
3C00
7C00
7800
FFF8
FFF8
FFF8
ENDCHAR
STARTCHAR bracketleft
ENCODING 91
SWIDTH 281 0
DWIDTH 7 0
BBX 6 26 1 -4
BITMAP
FC
FC
FC
F8
F8
F8
F8
F8
F8
F8
F8
F8
F8
F8
F8
F8
F8
F8
F8
F8
F8
F8
F8
FC
FC
FC
ENDCHAR
STARTCHAR backslash
ENCODING 92
SWIDTH 425 0
DWIDTH 11 0
BBX 12 20 0 -1
BITMAP
F000
F800
7800
7800
3C00
3C00
3E00
1E00
1E00
1F00
0F00
0F80
0780
0780
07C0
03C0
03C0
01E0
01E0
01F0
ENDCHAR
STARTCHAR bracketright
ENCODING 93
SWIDTH 281 0
DWIDTH 7 0
BBX 6 26 0 -4
BITMAP
FC
FC
FC
3C
3C
3C
3C
3C
3C
3C
3C
3C
3C
3C
3C
3C
3C
3C
3C
3C
3C
3C
3C
FC
FC
FC
ENDCHAR
STARTCHAR asciicircum
ENCODING 94
SWIDTH 447 0
DWIDTH 12 0
BBX 11 9 0 10
BITMAP
0F00
0F00
1F00
1F80
3B80
39C0
39C0
71E0
F0E0
ENDCHAR
STARTCHAR underscore
ENCODING 95
SWIDTH 441 0
DWIDTH 11 0
BBX 11 3 0 -3
BITMAP
FFE0
FFE0
FFE0
ENDCHAR
STARTCHAR grave
ENCODING 96
SWIDTH 339 0
DWIDTH 9 0
BBX 7 3 1 17
BITMAP
F8
78
3E
ENDCHAR
STARTCHAR a
ENCODING 97
SWIDTH 530 0
DWIDTH 14 0
BBX 13 14 0 0
BITMAP
0FC0
3FE0
3FF0
7DF0
78F8
00F8
1FF8
7FF8
78F8
F8F8
FDF8
7FF8
7F78
3E78
ENDCHAR
STARTCHAR b
ENCODING 98
SWIDTH 562 0
DWIDTH 15 0
BBX 13 20 1 0
BITMAP
F800
F800
F800
F800
F800
F800
FBC0
FFE0
FFF0
FDF0
F8F8
F878
F878
F878
F878
F8F8
F8F0
FFF0
FFE0
F3C0
ENDCHAR
STARTCHAR c
ENCODING 99
SWIDTH 511 0
DWIDTH 13 0
BBX 12 14 1 0
BITMAP
1F80
3FC0
7FE0
F9F0
F0F0
F0F0
F000
F000
F000
F0F0
F9F0
7FE0
3FC0
1F80
ENDCHAR
STARTCHAR d
ENCODING 100
SWIDTH 562 0
DWIDTH 15 0
BBX 12 20 1 0
BITMAP
00F0
00F0
00F0
00F0
00F0
00F0
1EF0
7FF0
7FF0
F9F0
F0F0
F0F0
F0F0
F0F0
F0F0
F0F0
F9F0
7FF0
7FF0
1E70
ENDCHAR
STARTCHAR e
ENCODING 101
SWIDTH 522 0
DWIDTH 14 0
BBX 12 14 1 0
BITMAP
1F80
3FC0
7FE0
F9F0
F0F0
F0F0
FFF0
FFF0
F000
F000
FC60
7FE0
3FF0
1FC0
ENDCHAR
STARTCHAR f
ENCODING 102
SWIDTH 358 0
DWIDTH 9 0
BBX 10 20 0 0
BITMAP
07C0
1FC0
1FC0
3E00
3C00
3C00
FF80
FF80
FF80
3C00
3C00
3C00
3C00
3C00
3C00
3C00
3C00
3C00
3C00
3C00
ENDCHAR
STARTCHAR g
ENCODING 103
SWIDTH 562 0
DWIDTH 15 0
BBX 12 19 1 -5
BITMAP
1E70
7FF0
7FF0
F9F0
F0F0
F0F0
F0F0
F0F0
F0F0
F0F0
F9F0
7FF0
7FF0
1EF0
00F0
21F0
7FF0
7FE0
3F80
ENDCHAR
STARTCHAR h
ENCODING 104
SWIDTH 562 0
DWIDTH 15 0
BBX 12 20 1 0
BITMAP
F000
F000
F000
F000
F000
F000
F3C0
F7E0
FFF0
F9F0
F0F0
F0F0
F0F0
F0F0
F0F0
F0F0
F0F0
F0F0
F0F0
F0F0
ENDCHAR
STARTCHAR i
ENCODING 105
SWIDTH 273 0
DWIDTH 7 0
BBX 5 20 1 0
BITMAP
F8
F8
F8
00
00
00
F8
F8
F8
F8
F8
F8
F8
F8
F8
F8
F8
F8
F8
F8
ENDCHAR
STARTCHAR j
ENCODING 106
SWIDTH 267 0
DWIDTH 7 0
BBX 7 25 -1 -5
BITMAP
3E
3E
3E
00
00
00
3E
3E
3E
3E
3E
3E
3E
3E
3E
3E
3E
3E
3E
3E
3E
3E
FC
FC
F0
ENDCHAR
STARTCHAR k
ENCODING 107
SWIDTH 546 0
DWIDTH 14 0
BBX 14 20 1 0
BITMAP
F800
F800
F800
F800
F800
F800
F8F8
F9F0
F9E0
FBE0
FFC0
FF80
FF80
FF80
FFC0
FBE0
F9E0
F9F0
F8F8
F8FC
ENDCHAR
STARTCHAR l
ENCODING 108
SWIDTH 273 0
DWIDTH 7 0
BBX 5 20 1 0
BITMAP
F8
F8
F8
F8
F8
F8
F8
F8
F8
F8
F8
F8
F8
F8
F8
F8
F8
F8
F8
F8
ENDCHAR
STARTCHAR m
ENCODING 109
SWIDTH 861 0
DWIDTH 22 0
BBX 20 14 1 0
BITMAP
F3C3C0
F7EFE0
FFFFF0
F9F9F0
F8F0F0
F8F0F0
F8F0F0
F8F0F0
F8F0F0
F8F0F0
F8F0F0
F8F0F0
F8F0F0
F8F0F0
ENDCHAR
STARTCHAR n
ENCODING 110
SWIDTH 562 0
DWIDTH 15 0
BBX 13 14 1 0
BITMAP
F3C0
F7E0
FFF0
FDF0
F0F0
F0F0
F0F8
F0F8
F0F8
F0F8
F0F8
F0F8
F0F8
F0F8
ENDCHAR
STARTCHAR o
ENCODING 111
SWIDTH 562 0
DWIDTH 15 0
BBX 13 14 1 0
BITMAP
1F80
3FE0
7FF0
F9F0
F0F8
F078
F078
F078
F078
F0F8
F9F0
7FF0
3FE0
1F80
ENDCHAR
STARTCHAR p
ENCODING 112
SWIDTH 562 0
DWIDTH 15 0
BBX 13 19 1 -5
BITMAP
F3C0
FFE0
FFF0
FDF0
F8F8
F878
F878
F878
F878
F8F8
F9F0
FFF0
FFE0
FBC0
F800
F800
F800
F800
F800
ENDCHAR
STARTCHAR q
ENCODING 113
SWIDTH 562 0
DWIDTH 15 0
BBX 12 19 1 -5
BITMAP
1E70
7FF0
7FF0
F9F0
F0F0
F0F0
F0F0
F0F0
F0F0
F0F0
F9F0
7FF0
7FF0
1EF0
00F0
00F0
00F0
00F0
00F0
ENDCHAR
STARTCHAR r
ENCODING 114
SWIDTH 352 0
DWIDTH 9 0
BBX 8 14 1 0
BITMAP
F3
F7
FF
FC
F8
F8
F8
F8
F8
F8
F8
F8
F8
F8
ENDCHAR
STARTCHAR s
ENCODING 115
SWIDTH 511 0
DWIDTH 13 0
BBX 13 14 0 0
BITMAP
0F80
3FE0
7FF0
7DF0
78F0
7C00
3F80
1FE0
03F0
70F0
F8F8
7FF0
3FE0
0FC0
ENDCHAR
STARTCHAR t
ENCODING 116
SWIDTH 353 0
DWIDTH 9 0
BBX 9 18 0 0
BITMAP
3C00
3C00
3C00
3C00
FF00
FF00
FF00
3C00
3C00
3C00
3C00
3C00
3C00
3C00
3E00
3F00
1F00
0F80
ENDCHAR
STARTCHAR u
ENCODING 117
SWIDTH 562 0
DWIDTH 15 0
BBX 12 14 1 0
BITMAP
F0F0
F0F0
F0F0
F0F0
F0F0
F0F0
F0F0
F0F0
F0F0
F8F0
F9F0
7FF0
7F70
1E70
ENDCHAR
STARTCHAR v
ENCODING 118
SWIDTH 514 0
DWIDTH 13 0
BBX 13 14 0 0
BITMAP
F878
F8F8
78F8
78F0
7CF0
3CF0
3DE0
3DE0
1DE0
1FC0
1FC0
0FC0
0F80
0F80
ENDCHAR
STARTCHAR w
ENCODING 119
SWIDTH 725 0
DWIDTH 19 0
BBX 19 14 0 0
BITMAP
F0E3E0
78E3C0
79E3C0
79F3C0
79F3C0
3BF780
3BFF80
3FBF80
3FBF80
3FBF00
1F1F00
1F1F00
1F1F00
1E0E00
ENDCHAR
STARTCHAR x
ENCODING 120
SWIDTH 514 0
DWIDTH 13 0
BBX 13 14 0 0
BITMAP
F8F8
7CF0
3DF0
3DE0
1FE0
1FC0
0FC0
0FC0
1FC0
1FE0
3DE0
3CF0
7CF8
F8F8
ENDCHAR
STARTCHAR y
ENCODING 121
SWIDTH 514 0
DWIDTH 13 0
BBX 13 19 0 -5
BITMAP
F878
F8F8
78F8
78F0
3CF0
3DF0
3DE0
1FE0
1FC0
1FC0
0FC0
0F80
0F80
0780
0F00
1F00
7F00
7E00
7C00
ENDCHAR
STARTCHAR z
ENCODING 122
SWIDTH 514 0
DWIDTH 13 0
BBX 12 14 1 0
BITMAP
FFE0
FFE0
FFE0
03E0
07C0
0F80
0F00
1F00
3E00
7C00
7800
FFF0
FFF0
FFF0
ENDCHAR
STARTCHAR braceleft
ENCODING 123
SWIDTH 324 0
DWIDTH 8 0
BBX 7 25 1 -5
BITMAP
0C
1E
3C
3C
38
38
38
38
38
78
F8
F0
E0
F0
78
78
38
38
38
38
38
3C
3E
1E
04
ENDCHAR
STARTCHAR bar
ENCODING 124
SWIDTH 255 0
DWIDTH 7 0
BBX 3 22 2 -3
BITMAP
E0
E0
E0
E0
E0
E0
E0
E0
E0
E0
E0
E0
E0
E0
E0
E0
E0
E0
E0
E0
E0
E0
ENDCHAR
STARTCHAR braceright
ENCODING 125
SWIDTH 324 0
DWIDTH 8 0
BBX 7 25 1 -5
BITMAP
C0
E0
F0
78
78
78
78
78
78
78
3C
3E
1E
3E
3C
78
78
78
78
78
78
70
F0
E0
C0
ENDCHAR
STARTCHAR asciitilde
ENCODING 126
SWIDTH 632 0
DWIDTH 16 0
BBX 14 6 1 5
BITMAP
3C00
7F1C
7FBC
F7FC
E1F8
20F0
ENDCHAR
STARTCHAR nonbreakingspace
ENCODING 160
SWIDTH 249 0
DWIDTH 6 0
BBX 1 1 0 0
BITMAP
00
ENDCHAR
ENDFONT
